<?xml version="1.0" encoding="UTF-8" standalone="no"?>
<svg
   width="446.96857"
   height="125.931"
   viewBox="0 0 446.96857 125.931"
   version="1.1"
   xml:space="preserve"
   id="SVGRoot"
   inkscape:version="1.4.2 (ebf0e940d0, 2025-05-08)"
   sodipodi:docname="node.svg"
   xmlns:inkscape="http://www.inkscape.org/namespaces/inkscape"
   xmlns:sodipodi="http://sodipodi.sourceforge.net/DTD/sodipodi-0.dtd"
   xmlns="http://www.w3.org/2000/svg"
   xmlns:svg="http://www.w3.org/2000/svg"><sodipodi:namedview
   pagecolor="#a9a9a9"
   bordercolor="#292929"
   borderopacity="1"
   inkscape:showpageshadow="2"
   inkscape:pageopacity="0.0"
   inkscape:pagecheckerboard="true"
   inkscape:deskcolor="#232323"
   id="namedview1"
   inkscape:zoom="1"
   inkscape:cx="210.5"
   inkscape:cy="-88.5"
   inkscape:window-width="2560"
   inkscape:window-height="1363"
   inkscape:window-x="0"
   inkscape:window-y="0"
   inkscape:window-maximized="1"
   inkscape:current-layer="SVGRoot"
   showgrid="false"><inkscape:grid
     id="grid3"
     units="px"
     originx="0"
     originy="0"
     spacingx="1"
     spacingy="1"
     empcolor="#0099e5"
     empopacity="0.30196078"
     color="#0099e5"
     opacity="0.14902"
     empspacing="5"
     enabled="true"
     visible="false" /></sodipodi:namedview><defs
   id="defs2" />

<style
   type="text/css"
   id="style1">
g.prefab path {
  vector-effect:non-scaling-stroke;
  -inkscape-stroke:hairline;
  fill: none;
  fill-opacity: 1;
  stroke-opacity: 1;
  stroke: #00349c;
}
</style>
<path
   d="m 221.53124,2.5 c -89.907,0 -180.768999,16.402 -209.496999,42.61 -39.924,36.422 48.116,78.321 213.372999,78.321 165.258,0 250.612,-41.899 208.353,-78.321 C 403.35324,18.902 311.43824,2.5 221.53124,2.5 Z m 0.28,8.721 c 34.338,0 68.675,2.98 96.96,8.582 30.392,6.019 53.167,14.938 62.273,25.307 10.243,11.664 2.516,24.304 -24.443,34.705 -29.751,11.479 -78.124,18.465 -132,18.465 -53.875,0 -102.697,-6.986 -133.183999,-18.465 -27.625,-10.401 -36.163,-23.041 -26.667,-34.705 8.441,-10.369 30.644,-19.288 60.649999,-25.307 27.926,-5.602 62.073,-8.582 96.411,-8.582 z m 0.315,9.843 c -24.364,0 -48.315,2.238 -67.299,6.377 -19.96,4.353 -33.614,10.626 -37.362,17.669 -4.052,7.617 3.769,15.53 22.888,21.788 20.339,6.658 50.776,10.589 83.582,10.589 32.806,0 62.99,-3.931 82.903,-10.589 18.718,-6.258 26.032,-14.171 21.491,-21.788 -4.199,-7.043 -18.256,-13.316 -38.495,-17.669 -19.249,-4.139 -43.343,-6.377 -67.708,-6.377 z m 0.359,11.197 c 13.02,0 25.733,1.27 35.541,3.576 10.069,2.369 16.459,5.684 17.587,9.273 1.172,3.733 -3.434,7.455 -13.057,10.294 -9.909,2.923 -24.086,4.604 -39.182,4.604 -15.095,0 -29.38,-1.681 -39.476,-4.604 -9.805,-2.839 -14.65,-6.561 -13.717,-10.294 0.898,-3.589 7.075,-6.904 16.992,-9.273 9.66,-2.306 22.292,-3.576 35.312,-3.576 z"
   id="path2"
   style="display:inline;fill:#000080;stroke:#000000;stroke-width:2;stroke-dasharray:none"
   inkscape:label="path2" />
<path
   style="display:none;fill:#000080;stroke-width:5;stroke-dasharray:none"
   d="M -73.817289,123.4307 58.740851,2.50047 384.32225,2.50046 524.63233,123.4307 Z"
   id="path3"
   sodipodi:nodetypes="ccccc" /></svg>
